# xmcd CD database file
#
# Track frame offsets:
#	150
#	15677
#	36180
#	55377
#	69697
#	88705
#	106112
#	123580
#	140637
#	156170
#	173090
#	194287
#	205202
#	220495
#	229900
#	245367
#	260262
#	278265
#	288962
#	306765
#	336220
#
# Disc length: 4670 seconds
#
# Revision: 7
# Processed by: cddbd v1.5.1PL0 Copyright (c) Steve Scherf et al.
# Submitted via: CDex 1.51
#
DISCID=35123c15
DTITLE=NEW ROTEeKA - 俺達いつでもロックバカ ザ・ベスト・オブ・ニューロティカ
DYEAR=2001
DGENRE=Rock
TTITLE0=DRINKIN’BOYS
TTITLE1=NIGHT PUNK
TTITLE2=TOKYO CHATTERLEY
TTITLE3=ヘイホTHEホイ
TTITLE4=夏・NANCY・16才
TTITLE5=OH！忙し
TTITLE6=FUCKIN’BIRTHD＠Y
TTITLE7=GALS HUNTING ROUTE 16
TTITLE8=WHISKEy ROCK
TTITLE9=ラッキーライフ
TTITLE10=シャキッとSAY！
TTITLE11=ウェンナウェイ
TTITLE12=並じゃねぇ
TTITLE13=ケツ
TTITLE14=大自然BOY
TTITLE15=PANIC LIFE
TTITLE16=男達の心(うた)
TTITLE17=ゴージャス・マイ・ライフ
TTITLE18=悲しきピエロ
TTITLE19=ロックンロール風俗〜長大作〜
TTITLE20=ア・イ・キ・タ
EXTD=YEAR: 2001
EXTT0=
EXTT1=
EXTT2=
EXTT3=
EXTT4=
EXTT5=
EXTT6=
EXTT7=
EXTT8=
EXTT9=
EXTT10=
EXTT11=
EXTT12=
EXTT13=
EXTT14=
EXTT15=
EXTT16=
EXTT17=
EXTT18=
EXTT19=
EXTT20=
PLAYORDER=
